<?xml version="1.0" encoding="UTF-8"?>
<svg xmlns="http://www.w3.org/2000/svg" width="370" height="355" viewBox="0 0 370 355" fill="none">
  <rect width="370" height="355" rx="11" fill="#3F2EDF"></rect>
  <g clip-path="url(#clip0_2115_2932)">
    <path d="M169.981 157.019V140.757H164.264C163.439 140.757 163.027 140.344 163.027 139.519C163.027 138.694 163.439 138.281 164.264 138.281H178.177C179.001 138.281 179.413 138.694 179.413 139.519C179.413 140.344 179.001 140.757 178.177 140.757H172.453V157.019C172.453 157.412 172.347 157.718 172.128 157.937C171.908 158.15 171.603 158.263 171.21 158.263C170.386 158.263 169.974 157.851 169.974 157.026" fill="white"></path>
    <path d="M183.721 157.877C183.469 157.624 183.336 157.338 183.336 157.019V139.486C183.336 139.153 183.462 138.86 183.721 138.614C183.974 138.368 184.26 138.248 184.579 138.248C184.911 138.248 185.204 138.374 185.45 138.614C185.696 138.86 185.815 139.146 185.815 139.486V146.892H197.847V139.486C197.847 139.153 197.967 138.86 198.213 138.614C198.459 138.368 198.745 138.248 199.084 138.248C199.423 138.248 199.709 138.374 199.955 138.614C200.201 138.86 200.32 139.146 200.32 139.486V157.019C200.32 157.332 200.201 157.618 199.955 157.877C199.709 158.13 199.423 158.263 199.084 158.263C198.745 158.263 198.459 158.143 198.213 157.897C197.967 157.651 197.847 157.358 197.847 157.026V149.38H185.815V157.026C185.815 157.338 185.689 157.624 185.45 157.884C185.204 158.137 184.918 158.27 184.579 158.27C184.26 158.27 183.981 158.143 183.721 157.884" fill="white"></path>
    <path d="M219.185 156.107C219.397 156.327 219.51 156.633 219.51 157.026C219.51 157.418 219.404 157.724 219.185 157.937C218.965 158.157 218.666 158.263 218.267 158.263H207.684C207.292 158.263 206.987 158.157 206.767 157.937C206.548 157.718 206.441 157.418 206.441 157.026V139.499C206.441 139.106 206.548 138.8 206.767 138.587C206.987 138.368 207.286 138.261 207.684 138.261H218.267C218.659 138.261 218.965 138.368 219.185 138.587C219.397 138.807 219.51 139.106 219.51 139.499C219.51 139.892 219.404 140.198 219.185 140.417C218.965 140.637 218.666 140.743 218.267 140.743H208.921V146.938H214.784C215.176 146.938 215.482 147.045 215.701 147.264C215.921 147.484 216.027 147.79 216.027 148.182C216.027 148.575 215.921 148.881 215.701 149.094C215.482 149.314 215.183 149.42 214.784 149.42H208.921V155.795H218.267C218.659 155.795 218.965 155.901 219.185 156.121" fill="white"></path>
    <path d="M168.393 180.627H175.585L171.902 171.684L168.393 180.627ZM180.597 186.616C180.597 187.088 180.331 187.434 179.8 187.647C179.62 187.727 179.427 187.767 179.208 187.767C178.736 187.767 178.39 187.501 178.178 186.969L176.582 183.103H167.415L165.88 186.969C165.66 187.501 165.321 187.767 164.849 187.767C164.657 187.767 164.464 187.727 164.291 187.647C163.739 187.454 163.467 187.108 163.467 186.616C163.467 186.396 163.507 186.203 163.586 186.024L170.606 168.73C170.899 168.078 171.364 167.759 171.989 167.759H172.049C172.7 167.798 173.126 168.125 173.345 168.73L180.478 186.024C180.557 186.203 180.597 186.396 180.597 186.616Z" fill="white"></path>
    <path d="M186.181 186.163C185.111 185.092 184.572 183.422 184.572 181.16V168.996C184.572 168.171 184.984 167.759 185.809 167.759C186.633 167.759 187.045 168.171 187.045 168.996V181.16C187.045 182.238 187.171 183.076 187.431 183.655C187.683 184.234 188.102 184.653 188.687 184.913C189.265 185.165 190.096 185.298 191.18 185.298H194.716C195.793 185.298 196.631 185.172 197.209 184.913C197.787 184.66 198.206 184.24 198.465 183.655C198.718 183.076 198.851 182.244 198.851 181.16V168.996C198.851 168.171 199.263 167.759 200.087 167.759C200.912 167.759 201.324 168.171 201.324 168.996V181.16C201.324 183.422 200.785 185.092 199.715 186.163C198.645 187.235 196.976 187.774 194.716 187.774H191.18C188.92 187.774 187.251 187.241 186.181 186.163Z" fill="white"></path>
    <path d="M211.906 186.529V170.267H206.19C205.365 170.267 204.953 169.854 204.953 169.029C204.953 168.204 205.365 167.792 206.19 167.792H220.103C220.927 167.792 221.339 168.204 221.339 169.029C221.339 169.854 220.927 170.267 220.103 170.267H214.379V186.529C214.379 186.922 214.273 187.228 214.054 187.441C213.834 187.661 213.528 187.767 213.136 187.767C212.312 187.767 211.9 187.354 211.9 186.529" fill="white"></path>
    <path d="M233.511 185.292C234.595 185.292 235.426 185.165 236.004 184.906C236.582 184.646 237.001 184.234 237.26 183.648C237.513 183.069 237.646 182.238 237.646 181.153V174.366C237.646 173.301 237.52 172.476 237.26 171.884C237.008 171.292 236.582 170.873 235.991 170.613C235.399 170.36 234.575 170.227 233.511 170.227H229.975C228.911 170.207 228.087 170.327 227.495 170.58C226.904 170.833 226.485 171.258 226.226 171.851C225.973 172.443 225.84 173.268 225.84 174.333V181.153C225.84 182.231 225.966 183.069 226.226 183.648C226.478 184.227 226.897 184.646 227.482 184.906C228.06 185.159 228.891 185.292 229.975 185.292H233.511ZM224.976 186.163C223.906 185.092 223.367 183.422 223.367 181.16V174.339C223.367 172.077 223.906 170.407 224.989 169.335C226.066 168.264 227.728 167.739 229.968 167.758H233.505C235.765 167.758 237.433 168.291 238.503 169.369C239.574 170.44 240.112 172.11 240.112 174.373V181.16C240.112 183.422 239.58 185.092 238.503 186.163C237.427 187.235 235.765 187.774 233.505 187.774H229.968C227.708 187.774 226.039 187.241 224.969 186.163" fill="white"></path>
    <path d="M267.652 168.91C267.652 169.069 267.625 169.236 267.565 169.409L262.108 186.702C261.968 187.055 261.802 187.321 261.609 187.501C261.416 187.681 261.15 187.767 260.811 187.767H260.752C260.12 187.767 259.688 187.414 259.455 186.702L254.915 172.037L254.942 172.629L250.574 186.702C250.435 187.075 250.275 187.348 250.089 187.514C249.903 187.681 249.63 187.767 249.278 187.767C248.986 187.767 248.746 187.681 248.573 187.514C248.394 187.348 248.248 187.075 248.128 186.702L242.67 169.409C242.611 169.189 242.584 169.016 242.584 168.876C242.584 168.657 242.65 168.47 242.777 168.317C242.903 168.158 243.102 168.011 243.382 167.872C243.614 167.772 243.814 167.725 243.973 167.725C244.445 167.725 244.791 168.038 245.004 168.67L249.484 182.923L253.732 168.816C253.851 168.464 254.024 168.198 254.25 168.018C254.476 167.838 254.775 167.752 255.148 167.752C255.832 167.772 256.284 168.124 256.504 168.816L260.752 182.923L265.232 168.67C265.431 168.058 265.77 167.758 266.262 167.758C266.382 167.758 266.575 167.798 266.854 167.878C267.386 168.131 267.652 168.477 267.652 168.91Z" fill="white"></path>
    <path d="M273.701 180.627H280.894L277.211 171.684L273.701 180.627ZM285.906 186.616C285.906 187.088 285.64 187.434 285.108 187.647C284.929 187.727 284.736 187.767 284.517 187.767C284.045 187.767 283.699 187.501 283.486 186.969L281.891 183.103H272.724L271.188 186.969C270.969 187.501 270.63 187.767 270.158 187.767C269.965 187.767 269.773 187.727 269.6 187.647C269.048 187.454 268.775 187.108 268.775 186.616C268.775 186.396 268.815 186.203 268.895 186.024L275.915 168.73C276.207 168.078 276.673 167.759 277.297 167.759H277.357C278.009 167.798 278.434 168.125 278.654 168.73L285.786 186.024C285.866 186.203 285.906 186.396 285.906 186.616Z" fill="white"></path>
    <path d="M301.407 173.341C301.407 172.237 301.174 171.445 300.702 170.966C300.23 170.48 299.433 170.24 298.316 170.24H292.652V177.327H298.316C299.439 177.327 300.23 177.094 300.702 176.622C301.174 176.149 301.407 175.351 301.407 174.233V173.348V173.341ZM302.79 177.972C302.065 178.917 301.008 179.496 299.632 179.716L303.494 186.15C303.614 186.35 303.674 186.563 303.674 186.802C303.674 187.235 303.454 187.581 303.022 187.834C302.77 187.993 302.544 188.067 302.344 188.067C301.952 188.067 301.62 187.847 301.34 187.414L296.86 179.949L296.774 179.802H292.646V186.529C292.646 186.922 292.539 187.228 292.32 187.441C292.1 187.654 291.801 187.767 291.409 187.767C291.017 187.767 290.711 187.661 290.492 187.441C290.272 187.228 290.166 186.922 290.166 186.529V168.996C290.166 168.604 290.272 168.298 290.492 168.085C290.711 167.872 291.01 167.759 291.409 167.759H298.309C300.117 167.759 301.5 168.238 302.451 169.189C303.401 170.147 303.88 171.525 303.88 173.335V174.22C303.88 175.77 303.514 177.021 302.79 177.966" fill="white"></path>
    <path d="M321.336 185.618C321.549 185.837 321.662 186.137 321.662 186.536C321.662 186.935 321.556 187.235 321.336 187.448C321.117 187.667 320.818 187.774 320.419 187.774H309.836C309.444 187.774 309.138 187.667 308.925 187.448C308.706 187.228 308.6 186.929 308.6 186.536V169.009C308.6 168.617 308.706 168.311 308.925 168.098C309.145 167.878 309.444 167.772 309.836 167.772H320.419C320.811 167.772 321.117 167.878 321.336 168.098C321.549 168.317 321.662 168.617 321.662 169.009C321.662 169.402 321.556 169.708 321.336 169.928C321.117 170.147 320.818 170.254 320.419 170.254H311.072V176.449H316.936C317.328 176.449 317.634 176.555 317.853 176.775C318.072 176.994 318.179 177.3 318.179 177.693C318.179 178.086 318.072 178.392 317.853 178.605C317.634 178.824 317.334 178.931 316.936 178.931H311.072V185.305H320.419C320.811 185.305 321.117 185.412 321.336 185.631" fill="white"></path>
    <path d="M165.56 216.958C165.341 216.745 165.234 216.439 165.234 216.04V198.513C165.234 198.121 165.341 197.815 165.56 197.595C165.779 197.382 166.079 197.269 166.477 197.269H177.326C177.718 197.269 178.024 197.375 178.243 197.595C178.463 197.815 178.569 198.114 178.569 198.513C178.569 198.912 178.463 199.212 178.243 199.431C178.024 199.651 177.725 199.758 177.326 199.758H167.714V205.952H173.637C174.029 205.952 174.335 206.059 174.554 206.278C174.773 206.491 174.88 206.797 174.88 207.19C174.88 207.583 174.773 207.889 174.554 208.102C174.335 208.321 174.036 208.428 173.637 208.428H167.714V216.04C167.714 216.432 167.608 216.739 167.388 216.958C167.169 217.178 166.87 217.284 166.471 217.284C166.072 217.284 165.773 217.178 165.553 216.958" fill="white"></path>
    <path d="M190.767 214.802C191.851 214.802 192.682 214.676 193.26 214.416C193.838 214.157 194.257 213.744 194.516 213.159C194.769 212.58 194.902 211.748 194.902 210.663V203.876C194.902 202.812 194.776 201.987 194.516 201.394C194.264 200.802 193.838 200.383 193.247 200.124C192.655 199.871 191.831 199.738 190.767 199.738H187.231C186.167 199.718 185.343 199.837 184.751 200.09C184.16 200.343 183.741 200.769 183.481 201.361C183.229 201.953 183.096 202.778 183.096 203.843V210.663C183.096 211.741 183.222 212.58 183.481 213.159C183.734 213.738 184.153 214.157 184.738 214.416C185.316 214.669 186.147 214.802 187.231 214.802H190.767ZM182.232 215.674C181.161 214.603 180.623 212.932 180.623 210.67V203.85C180.623 201.587 181.161 199.917 182.245 198.846C183.322 197.775 184.984 197.249 187.224 197.269H190.76C193.021 197.269 194.689 197.801 195.759 198.879C196.83 199.951 197.368 201.621 197.368 203.883V210.67C197.368 212.932 196.836 214.603 195.759 215.674C194.689 216.745 193.021 217.284 190.76 217.284H187.224C184.964 217.284 183.295 216.752 182.225 215.674" fill="white"></path>
    <path d="M204.109 215.674C203.038 214.603 202.5 212.932 202.5 210.67V198.507C202.5 197.681 202.912 197.269 203.736 197.269C204.561 197.269 204.973 197.681 204.973 198.507V210.67C204.973 211.748 205.099 212.586 205.358 213.165C205.611 213.744 206.03 214.163 206.615 214.423C207.193 214.676 208.024 214.809 209.108 214.809H212.644C213.721 214.809 214.559 214.682 215.137 214.423C215.715 214.17 216.134 213.751 216.393 213.165C216.646 212.586 216.779 211.755 216.779 210.67V198.507C216.779 197.681 217.191 197.269 218.015 197.269C218.839 197.269 219.252 197.681 219.252 198.507V210.67C219.252 212.932 218.713 214.603 217.643 215.674C216.573 216.745 214.904 217.284 212.644 217.284H209.108C206.847 217.284 205.179 216.752 204.109 215.674Z" fill="white"></path>
    <path d="M240.943 197.595C241.162 197.815 241.268 198.114 241.268 198.513V216.04C241.268 216.432 241.162 216.739 240.943 216.958C240.723 217.171 240.424 217.284 240.025 217.284C239.793 217.284 239.573 217.224 239.374 217.104C239.181 216.985 238.982 216.798 238.782 216.546L227.555 202.053V216.04C227.555 216.432 227.448 216.739 227.229 216.958C227.009 217.171 226.71 217.284 226.311 217.284C225.913 217.284 225.613 217.178 225.394 216.958C225.175 216.739 225.068 216.439 225.068 216.04V198.513C225.068 198.121 225.175 197.815 225.394 197.595C225.613 197.375 225.913 197.269 226.311 197.269C226.544 197.269 226.757 197.329 226.943 197.449C227.129 197.568 227.328 197.755 227.548 198.008L238.775 212.5V198.513C238.775 198.121 238.882 197.815 239.101 197.595C239.321 197.375 239.62 197.269 240.012 197.269C240.404 197.269 240.71 197.375 240.929 197.595" fill="white"></path>
    <path d="M255.747 214.802C257.023 214.802 258.02 214.642 258.738 214.33C259.456 214.017 259.968 213.498 260.287 212.779C260.6 212.061 260.759 211.063 260.759 209.785V204.768C260.759 203.49 260.6 202.492 260.287 201.774C259.975 201.055 259.456 200.536 258.738 200.223C258.02 199.911 257.023 199.751 255.747 199.751H249.884V214.802H255.747ZM247.73 216.958C247.511 216.745 247.404 216.439 247.404 216.04V198.513C247.404 198.121 247.511 197.815 247.73 197.595C247.949 197.382 248.249 197.269 248.647 197.269H255.754C258.333 197.269 260.221 197.874 261.43 199.085C262.64 200.296 263.245 202.186 263.245 204.768V209.785C263.245 212.367 262.64 214.257 261.43 215.468C260.221 216.679 258.333 217.284 255.754 217.284H248.647C248.255 217.284 247.949 217.178 247.73 216.958Z" fill="white"></path>
    <path d="M271.521 210.138H278.714L275.031 201.195L271.521 210.138ZM283.726 216.126C283.726 216.599 283.46 216.945 282.929 217.158C282.749 217.238 282.556 217.277 282.337 217.277C281.865 217.277 281.519 217.011 281.307 216.479L279.711 212.613H270.544L269.009 216.479C268.789 217.011 268.45 217.277 267.978 217.277C267.786 217.277 267.593 217.238 267.42 217.158C266.868 216.965 266.596 216.619 266.596 216.126C266.596 215.907 266.636 215.714 266.715 215.534L273.735 198.24C274.028 197.588 274.493 197.269 275.118 197.269H275.178C275.829 197.309 276.254 197.635 276.474 198.24L283.607 215.534C283.686 215.707 283.726 215.907 283.726 216.126Z" fill="white"></path>
    <path d="M290.387 216.04V199.778H284.67C283.846 199.778 283.434 199.365 283.434 198.54C283.434 197.715 283.846 197.302 284.67 197.302H298.583C299.407 197.302 299.82 197.715 299.82 198.54C299.82 199.365 299.407 199.778 298.583 199.778H292.86V216.04C292.86 216.432 292.753 216.739 292.534 216.958C292.315 217.171 292.009 217.284 291.617 217.284C290.792 217.284 290.38 216.872 290.38 216.047" fill="white"></path>
    <path d="M304.033 216.985C303.84 216.792 303.74 216.472 303.74 216.04V198.54C303.74 198.107 303.84 197.795 304.033 197.595C304.232 197.402 304.545 197.302 304.977 197.302C305.409 197.302 305.721 197.402 305.921 197.595C306.113 197.795 306.213 198.107 306.213 198.54V216.04C306.213 216.472 306.113 216.792 305.921 216.985C305.721 217.184 305.409 217.278 304.977 217.278C304.545 217.278 304.232 217.178 304.033 216.985Z" fill="white"></path>
    <path d="M321.783 214.802C322.866 214.802 323.697 214.676 324.276 214.416C324.854 214.157 325.273 213.744 325.532 213.159C325.784 212.58 325.917 211.748 325.917 210.663V203.876C325.917 202.812 325.791 201.987 325.532 201.394C325.279 200.802 324.854 200.383 324.262 200.124C323.671 199.871 322.846 199.738 321.783 199.738H318.246C317.183 199.718 316.358 199.837 315.767 200.09C315.175 200.343 314.756 200.769 314.497 201.361C314.244 201.953 314.112 202.778 314.112 203.843V210.663C314.112 211.741 314.238 212.58 314.497 213.159C314.75 213.738 315.168 214.157 315.753 214.416C316.332 214.669 317.163 214.802 318.246 214.802H321.783ZM313.247 215.674C312.177 214.603 311.639 212.932 311.639 210.67V203.85C311.639 201.587 312.177 199.917 313.261 198.846C314.338 197.775 316.006 197.249 318.24 197.269H321.776C324.036 197.269 325.705 197.801 326.775 198.879C327.845 199.951 328.384 201.621 328.384 203.883V210.67C328.384 212.932 327.852 214.603 326.775 215.674C325.705 216.745 324.036 217.284 321.776 217.284H318.24C315.979 217.284 314.311 216.752 313.241 215.674" fill="white"></path>
    <path d="M349.675 197.595C349.894 197.815 350.001 198.114 350.001 198.513V216.04C350.001 216.432 349.894 216.739 349.675 216.958C349.456 217.171 349.156 217.284 348.758 217.284C348.525 217.284 348.306 217.224 348.106 217.104C347.913 216.985 347.714 216.798 347.515 216.546L336.287 202.053V216.04C336.287 216.432 336.181 216.739 335.961 216.958C335.742 217.171 335.443 217.284 335.044 217.284C334.645 217.284 334.346 217.178 334.127 216.958C333.907 216.739 333.801 216.439 333.801 216.04V198.513C333.801 198.121 333.907 197.815 334.127 197.595C334.346 197.375 334.645 197.269 335.044 197.269C335.277 197.269 335.489 197.329 335.675 197.449C335.862 197.568 336.061 197.755 336.28 198.008L347.508 212.5V198.513C347.508 198.121 347.614 197.815 347.834 197.595C348.053 197.375 348.352 197.269 348.744 197.269C349.137 197.269 349.442 197.375 349.662 197.595" fill="white"></path>
    <path d="M87.4049 232.908L42.3749 206.871L132.355 206.944L87.4049 232.908ZM86.3745 122.691L39.6827 202.798L39.5431 149.926L86.3745 122.691ZM88.4419 122.684L135.42 149.666L135.559 202.193L88.4419 122.684ZM87.4115 177.041L133.066 205.766L42.5611 205.693L87.4049 177.041H87.4115ZM87.4115 123.257L134.27 202.339L87.3983 172.856L41.3579 202.266L87.4115 123.257ZM138.956 147.617L87.3983 118L36 147.883L36.1529 207.383L87.4115 237L139.102 207.117L138.949 147.617H138.956Z" fill="white"></path>
  </g>
  <defs>
    <clipPath id="clip0_2115_2932">
      <rect width="314" height="119" fill="white" transform="translate(36 118)"></rect>
    </clipPath>
  </defs>
</svg>
