<?xml version="1.0" encoding="UTF-8"?>
<!DOCTYPE svg PUBLIC "-//W3C//DTD SVG 1.1//EN" "http://www.w3.org/Graphics/SVG/1.1/DTD/svg11.dtd">
<svg xmlns="http://www.w3.org/2000/svg" version="1.1" width="288px" height="158px" style="shape-rendering:geometricPrecision; text-rendering:geometricPrecision; image-rendering:optimizeQuality; fill-rule:evenodd; clip-rule:evenodd" xmlns:xlink="http://www.w3.org/1999/xlink">
<g><path style="opacity:1" fill="#fcfcfd" d="M -0.5,-0.5 C 95.5,-0.5 191.5,-0.5 287.5,-0.5C 287.5,52.1667 287.5,104.833 287.5,157.5C 191.5,157.5 95.5,157.5 -0.5,157.5C -0.5,104.833 -0.5,52.1667 -0.5,-0.5 Z"/></g>
<g><path style="opacity:1" fill="#135597" d="M 190.5,9.5 C 191.388,12.0545 191.721,14.7212 191.5,17.5C 185.5,17.5 179.5,17.5 173.5,17.5C 173.5,14.8333 173.5,12.1667 173.5,9.5C 179.167,9.5 184.833,9.5 190.5,9.5 Z"/></g>
<g><path style="opacity:1" fill="#1d82bd" d="M 190.5,9.5 C 195.833,9.5 201.167,9.5 206.5,9.5C 206.5,12.1667 206.5,14.8333 206.5,17.5C 201.5,17.5 196.5,17.5 191.5,17.5C 191.721,14.7212 191.388,12.0545 190.5,9.5 Z"/></g>
<g><path style="opacity:1" fill="#78a8cf" d="M 206.5,9.5 C 208.167,9.5 209.833,9.5 211.5,9.5C 211.5,12.5 211.5,15.5 211.5,18.5C 198.833,18.5 186.167,18.5 173.5,18.5C 170.167,18.5 166.833,18.5 163.5,18.5C 166.625,17.5206 169.958,17.1872 173.5,17.5C 179.5,17.5 185.5,17.5 191.5,17.5C 196.5,17.5 201.5,17.5 206.5,17.5C 206.5,14.8333 206.5,12.1667 206.5,9.5 Z"/></g>
<g><path style="opacity:1" fill="#607ead" d="M 103.5,18.5 C 95.5,18.5 87.5,18.5 79.5,18.5C 79.5,33.1667 79.5,47.8333 79.5,62.5C 78.5039,47.676 78.1706,32.676 78.5,17.5C 87.0168,17.1739 95.3501,17.5073 103.5,18.5 Z"/></g>
<g><path style="opacity:1" fill="#0d3a82" d="M 103.5,18.5 C 113.273,20.7136 116.107,26.3803 112,35.5C 110.58,37.422 108.747,38.7554 106.5,39.5C 114.369,42.2997 116.869,47.6331 114,55.5C 112.127,57.7089 109.96,59.5422 107.5,61C 98.2178,62.3159 88.8845,62.8159 79.5,62.5C 79.5,47.8333 79.5,33.1667 79.5,18.5C 87.5,18.5 95.5,18.5 103.5,18.5 Z"/></g>
<g><path style="opacity:1" fill="#0d3a82" d="M 163.5,18.5 C 166.833,18.5 170.167,18.5 173.5,18.5C 173.667,34.8367 173.5,51.1701 173,67.5C 172.5,68 172,68.5 171.5,69C 168.183,69.4983 164.85,69.665 161.5,69.5C 161.333,52.83 161.5,36.1633 162,19.5C 162.383,18.944 162.883,18.6107 163.5,18.5 Z"/></g>
<g><path style="opacity:1" fill="#93a8c8" d="M 186.5,25.5 C 194.65,24.5073 202.983,24.1739 211.5,24.5C 211.802,27.0593 211.468,29.3926 210.5,31.5C 210.5,29.5 210.5,27.5 210.5,25.5C 202.5,25.5 194.5,25.5 186.5,25.5 Z"/></g>
<g><path style="opacity:1" fill="#f7f8fb" d="M 90.5,26.5 C 93.5184,26.3354 96.5184,26.502 99.5,27C 102.167,29.6667 102.167,32.3333 99.5,35C 96.5184,35.498 93.5184,35.6646 90.5,35.5C 90.5,32.5 90.5,29.5 90.5,26.5 Z"/></g>
<g><path style="opacity:1" fill="#1a4f92" d="M 153.5,25.5 C 153.945,28.3646 153.278,30.8646 151.5,33C 147.848,33.4986 144.182,33.6653 140.5,33.5C 139.351,30.9592 139.351,28.4592 140.5,26C 144.821,25.501 149.154,25.3343 153.5,25.5 Z"/></g>
<g><path style="opacity:1" fill="#123b83" d="M 186.5,25.5 C 194.5,25.5 202.5,25.5 210.5,25.5C 210.5,27.5 210.5,29.5 210.5,31.5C 210.389,32.1174 210.056,32.6174 209.5,33C 204.177,33.4994 198.844,33.666 193.5,33.5C 193.5,36.8333 193.5,40.1667 193.5,43.5C 199.167,43.5 204.833,43.5 210.5,43.5C 210.768,46.1194 210.435,48.6194 209.5,51C 204.292,52.3967 198.959,52.8967 193.5,52.5C 193.888,57.6278 193.388,62.6278 192,67.5C 188.757,69.2625 185.257,69.9292 181.5,69.5C 181.333,56.1625 181.5,42.8292 182,29.5C 182.748,27.249 184.248,25.9156 186.5,25.5 Z"/></g>
<g><path style="opacity:1" fill="#3e8ec4" d="M 153.5,25.5 C 149.154,25.3343 144.821,25.501 140.5,26C 139.351,28.4592 139.351,30.9592 140.5,33.5C 138.097,33.448 135.764,33.7814 133.5,34.5C 131.379,34.3253 129.379,34.6586 127.5,35.5C 127.405,32.3033 128.072,29.3033 129.5,26.5C 137.539,24.3387 145.539,24.0054 153.5,25.5 Z"/></g>
<g><path style="opacity:1" fill="#71b1dc" d="M 129.5,26.5 C 128.072,29.3033 127.405,32.3033 127.5,35.5C 124.561,36.456 122.228,38.1226 120.5,40.5C 119.436,33.2291 122.436,28.5624 129.5,26.5 Z"/></g>
<g><path style="opacity:1" fill="#133c84" d="M 133.5,34.5 C 132.248,36.3388 132.248,38.1722 133.5,40C 137.5,41.3333 141.5,42.6667 145.5,44C 152.974,47.1204 155.474,52.6204 153,60.5C 151.108,64.0579 148.275,66.5579 144.5,68C 136.895,69.3115 129.228,69.8115 121.5,69.5C 121.223,66.5525 121.556,63.7191 122.5,61C 128.167,60.6667 133.833,60.3333 139.5,60C 142.08,57.8797 142.08,55.713 139.5,53.5C 133.943,51.8162 128.61,49.6495 123.5,47C 121.781,45.1295 120.781,42.9628 120.5,40.5C 122.228,38.1226 124.561,36.456 127.5,35.5C 129.379,34.6586 131.379,34.3253 133.5,34.5 Z"/></g>
<g><path style="opacity:1" fill="#f5f7fa" d="M 90.5,43.5 C 94.5839,43.0431 98.4172,43.7098 102,45.5C 104.222,48.5096 103.722,51.0096 100.5,53C 97.1832,53.4983 93.8499,53.665 90.5,53.5C 90.5,50.1667 90.5,46.8333 90.5,43.5 Z"/></g>
<g><path style="opacity:1" fill="#5199ca" d="M 88.5,69.5 C 89.8333,69.5 91.1667,69.5 92.5,69.5C 92.5,72.1667 92.5,74.8333 92.5,77.5C 97.1667,77.5 101.833,77.5 106.5,77.5C 111.167,77.5 115.833,77.5 120.5,77.5C 120.5,74.8333 120.5,72.1667 120.5,69.5C 120.833,69.5 121.167,69.5 121.5,69.5C 121.5,72.5 121.5,75.5 121.5,78.5C 111.167,78.5 100.833,78.5 90.5,78.5C 88.7581,75.8555 88.0914,72.8555 88.5,69.5 Z"/></g>
<g><path style="opacity:1" fill="#1675b2" d="M 92.5,69.5 C 97.5,69.5 102.5,69.5 107.5,69.5C 106.612,72.0545 106.279,74.7212 106.5,77.5C 101.833,77.5 97.1667,77.5 92.5,77.5C 92.5,74.8333 92.5,72.1667 92.5,69.5 Z"/></g>
<g><path style="opacity:1" fill="#134d91" d="M 107.5,69.5 C 111.833,69.5 116.167,69.5 120.5,69.5C 120.5,72.1667 120.5,74.8333 120.5,77.5C 115.833,77.5 111.167,77.5 106.5,77.5C 106.279,74.7212 106.612,72.0545 107.5,69.5 Z"/></g>
<g><path style="opacity:1" fill="#81bbe2" d="M 88.5,69.5 C 88.0914,72.8555 88.7581,75.8555 90.5,78.5C 86.5,78.5 82.5,78.5 78.5,78.5C 78.5,75.5 78.5,72.5 78.5,69.5C 81.8333,69.5 85.1667,69.5 88.5,69.5 Z"/></g>
<g><path style="opacity:1" fill="#0d3a83" d="M 80.5,99.5 C 79.596,100.209 79.2627,101.209 79.5,102.5C 85.1667,102.5 90.8333,102.5 96.5,102.5C 96.5,103.833 96.5,105.167 96.5,106.5C 83.5,106.5 70.5,106.5 57.5,106.5C 57.5,105.167 57.5,103.833 57.5,102.5C 63.1667,102.5 68.8333,102.5 74.5,102.5C 74.5,100.5 74.5,98.5 74.5,96.5C 77.3933,96.0311 79.3933,97.0311 80.5,99.5 Z"/></g>
<g><path style="opacity:1" fill="#94a8c8" d="M 206.5,99.5 C 205.167,99.5 203.833,99.5 202.5,99.5C 202.737,100.791 202.404,101.791 201.5,102.5C 201.5,101.167 201.5,99.8333 201.5,98.5C 203.415,98.2155 205.081,98.5489 206.5,99.5 Z"/></g>
<g><path style="opacity:1" fill="#163f86" d="M 254.5,97.5 C 256.696,97.5652 258.696,98.2319 260.5,99.5C 259.289,100.72 259.289,101.887 260.5,103C 265.812,107.992 271.812,111.992 278.5,115C 276.068,118.978 273.068,119.478 269.5,116.5C 266.242,117.417 262.909,117.751 259.5,117.5C 259.5,118.833 259.5,120.167 259.5,121.5C 263.5,121.5 267.5,121.5 271.5,121.5C 271.5,122.833 271.5,124.167 271.5,125.5C 265.175,125.004 264.841,126.171 270.5,129C 268.5,129.667 267.167,131 266.5,133C 269.482,133.498 272.482,133.665 275.5,133.5C 275.5,134.833 275.5,136.167 275.5,137.5C 263.5,137.5 251.5,137.5 239.5,137.5C 239.5,136.167 239.5,134.833 239.5,133.5C 241.924,133.808 244.257,133.474 246.5,132.5C 243.609,129.66 243.942,127.493 247.5,126C 246.207,125.51 244.873,125.343 243.5,125.5C 243.5,124.167 243.5,122.833 243.5,121.5C 247.167,121.5 250.833,121.5 254.5,121.5C 254.5,120.167 254.5,118.833 254.5,117.5C 251.091,117.751 247.758,117.417 244.5,116.5C 241.61,119.472 239.276,119.139 237.5,115.5C 244.562,110.773 250.229,104.773 254.5,97.5 Z"/></g>
<g><path style="opacity:1" fill="#24468b" d="M 25.5,98.5 C 27.7128,98.848 29.7128,99.6813 31.5,101C 30.5115,113.086 30.1782,125.253 30.5,137.5C 28.5,137.5 26.5,137.5 24.5,137.5C 24.5,135.5 24.5,133.5 24.5,131.5C 21.538,132.061 18.7047,133.061 16,134.5C 14.0328,133.507 12.8661,131.84 12.5,129.5C 16.4243,128.352 20.2576,127.019 24,125.5C 24.4986,121.848 24.6653,118.182 24.5,114.5C 20.8333,114.5 17.1667,114.5 13.5,114.5C 13.5,112.833 13.5,111.167 13.5,109.5C 17.5,109.5 21.5,109.5 25.5,109.5C 25.5,105.833 25.5,102.167 25.5,98.5 Z"/></g>
<g><path style="opacity:1" fill="#1d4389" d="M 34.5,99.5 C 36.7925,99.2436 38.9592,99.5769 41,100.5C 40.4979,104.092 40.4979,107.759 41,111.5C 43.5149,109.577 46.1816,107.91 49,106.5C 50.9597,107.292 52.4597,108.625 53.5,110.5C 49.4233,112.956 45.2566,115.289 41,117.5C 40.5008,122.155 40.3342,126.821 40.5,131.5C 42.8568,131.663 45.1902,131.497 47.5,131C 48.1029,129.175 48.7696,127.341 49.5,125.5C 55.4973,128.542 55.8307,132.375 50.5,137C 46.1667,137.667 41.8333,137.667 37.5,137C 36.6667,136.167 35.8333,135.333 35,134.5C 34.5001,122.838 34.3335,111.171 34.5,99.5 Z"/></g>
<g><path style="opacity:1" fill="#163e86" d="M 121.5,109.5 C 121.5,110.833 121.5,112.167 121.5,113.5C 119.712,113.215 118.045,113.548 116.5,114.5C 118.288,116.576 119.954,118.743 121.5,121C 120.619,121.708 119.953,122.542 119.5,123.5C 117.983,123.489 116.816,122.823 116,121.5C 115.501,126.823 115.334,132.156 115.5,137.5C 113.833,137.5 112.167,137.5 110.5,137.5C 110.666,132.489 110.499,127.489 110,122.5C 109.283,123.044 108.783,123.711 108.5,124.5C 107.221,126.123 105.887,127.79 104.5,129.5C 103.155,128.653 102.155,127.487 101.5,126C 104.032,122.298 106.365,118.465 108.5,114.5C 106.955,113.548 105.288,113.215 103.5,113.5C 103.5,112.167 103.5,110.833 103.5,109.5C 105.833,109.5 108.167,109.5 110.5,109.5C 110.5,108.5 110.5,107.5 110.5,106.5C 106.167,107.315 103.834,105.648 103.5,101.5C 108.17,100.928 112.837,100.261 117.5,99.5C 120.489,99.8014 121.822,101.468 121.5,104.5C 119.5,104.5 117.5,104.5 115.5,104.5C 115.5,106.167 115.5,107.833 115.5,109.5C 117.5,109.5 119.5,109.5 121.5,109.5 Z"/></g>
<g><path style="opacity:1" fill="#0e3b83" d="M 132.5,98.5 C 134.5,98.8333 136.5,99.1667 138.5,99.5C 137.614,106.457 137.28,113.457 137.5,120.5C 139.167,120.5 140.833,120.5 142.5,120.5C 142.5,121.833 142.5,123.167 142.5,124.5C 141.07,124.421 139.736,124.754 138.5,125.5C 137.509,129.445 137.176,133.445 137.5,137.5C 135.833,137.5 134.167,137.5 132.5,137.5C 132.5,133.833 132.5,130.167 132.5,126.5C 128.865,127.114 125.198,127.448 121.5,127.5C 120.566,126.432 120.232,125.099 120.5,123.5C 124.5,123.167 128.5,122.833 132.5,122.5C 132.5,114.5 132.5,106.5 132.5,98.5 Z"/></g>
<g><path style="opacity:1" fill="#163f86" d="M 170.5,107.5 C 170.5,107.833 170.5,108.167 170.5,108.5C 169.855,109.812 168.855,110.812 167.5,111.5C 164.833,109.5 162.167,107.5 159.5,105.5C 157.684,107.817 155.684,109.984 153.5,112C 158.489,112.499 163.489,112.666 168.5,112.5C 168.666,116.514 168.499,120.514 168,124.5C 164.943,125.451 161.777,125.784 158.5,125.5C 158.5,124.167 158.5,122.833 158.5,121.5C 160.167,121.5 161.833,121.5 163.5,121.5C 163.5,119.833 163.5,118.167 163.5,116.5C 161.167,116.5 158.833,116.5 156.5,116.5C 156.5,122.167 156.5,127.833 156.5,133.5C 159.5,133.5 162.5,133.5 165.5,133.5C 165.337,131.143 165.503,128.81 166,126.5C 167.356,127.38 168.856,127.714 170.5,127.5C 170.98,130.685 170.314,133.519 168.5,136C 163.282,137.563 157.949,137.896 152.5,137C 151.849,129.89 151.183,122.723 150.5,115.5C 148.378,116.782 146.711,116.282 145.5,114C 150.026,108.644 154.692,103.478 159.5,98.5C 161.107,98.637 162.441,99.3036 163.5,100.5C 162.41,101.609 162.41,102.609 163.5,103.5C 165.85,104.861 168.184,106.194 170.5,107.5 Z"/></g>
<g><path style="opacity:1" fill="#163f86" d="M 179.5,99.5 C 181.977,99.0508 183.977,99.7175 185.5,101.5C 184.687,113.121 184.187,124.787 184,136.5C 180.943,137.451 177.777,137.784 174.5,137.5C 174.5,136.167 174.5,134.833 174.5,133.5C 176.167,133.5 177.833,133.5 179.5,133.5C 179.5,122.167 179.5,110.833 179.5,99.5 Z"/></g>
<g><path style="opacity:1" fill="#143e86" d="M 224.5,106.5 C 223.515,110.634 223.182,114.968 223.5,119.5C 226.5,119.5 229.5,119.5 232.5,119.5C 232.5,120.5 232.5,121.5 232.5,122.5C 229.813,122.336 227.146,122.503 224.5,123C 226.983,125.406 229.65,127.573 232.5,129.5C 231.573,131.946 229.906,132.779 227.5,132C 226.271,130.471 224.771,129.304 223,128.5C 222.517,129.448 222.351,130.448 222.5,131.5C 220.076,131.192 217.743,131.526 215.5,132.5C 220.12,133.493 224.786,133.827 229.5,133.5C 229.5,134.833 229.5,136.167 229.5,137.5C 218.5,137.5 207.5,137.5 196.5,137.5C 196.5,136.167 196.5,134.833 196.5,133.5C 201.214,133.827 205.88,133.493 210.5,132.5C 207.914,131.52 205.247,131.187 202.5,131.5C 202.719,130.325 202.386,129.325 201.5,128.5C 199.456,130.219 197.456,131.886 195.5,133.5C 194.038,132.542 192.705,131.376 191.5,130C 194.5,127.667 197.5,125.333 200.5,123C 198.19,122.503 195.857,122.337 193.5,122.5C 193.5,121.5 193.5,120.5 193.5,119.5C 196.5,119.5 199.5,119.5 202.5,119.5C 202.818,114.968 202.485,110.634 201.5,106.5C 199.167,106.5 196.833,106.5 194.5,106.5C 194.5,105.167 194.5,103.833 194.5,102.5C 196.833,102.5 199.167,102.5 201.5,102.5C 202.404,101.791 202.737,100.791 202.5,99.5C 203.833,99.5 205.167,99.5 206.5,99.5C 207.404,100.209 207.737,101.209 207.5,102.5C 211.167,102.5 214.833,102.5 218.5,102.5C 218.343,101.127 218.51,99.7932 219,98.5C 220.825,99.1029 222.659,99.7696 224.5,100.5C 224.291,101.086 223.957,101.586 223.5,102C 226.146,102.497 228.813,102.664 231.5,102.5C 231.5,103.833 231.5,105.167 231.5,106.5C 229.167,106.5 226.833,106.5 224.5,106.5 Z"/></g>
<g><path style="opacity:1" fill="#97abca" d="M 80.5,99.5 C 85.9273,101.146 91.594,102.146 97.5,102.5C 97.1667,102.5 96.8333,102.5 96.5,102.5C 90.8333,102.5 85.1667,102.5 79.5,102.5C 79.2627,101.209 79.596,100.209 80.5,99.5 Z"/></g>
<g><path style="opacity:1" fill="#23478c" d="M 130.5,106.5 C 130.443,107.609 130.11,108.609 129.5,109.5C 128.85,109.804 128.183,110.137 127.5,110.5C 126.079,107.991 124.412,105.657 122.5,103.5C 123.167,102.167 124.167,101.167 125.5,100.5C 127.652,102.162 129.318,104.162 130.5,106.5 Z"/></g>
<g><path style="opacity:1" fill="#123d85" d="M 172.5,103.5 C 174.827,103.247 176.827,103.914 178.5,105.5C 177.533,113.11 177.2,120.777 177.5,128.5C 175.833,128.5 174.167,128.5 172.5,128.5C 172.5,120.167 172.5,111.833 172.5,103.5 Z"/></g>
<g><path style="opacity:1" fill="#476aa1" d="M 96.5,102.5 C 96.8333,102.5 97.1667,102.5 97.5,102.5C 97.5,104.167 97.5,105.833 97.5,107.5C 83.9895,107.829 70.6562,107.496 57.5,106.5C 70.5,106.5 83.5,106.5 96.5,106.5C 96.5,105.167 96.5,103.833 96.5,102.5 Z"/></g>
<g><path style="opacity:1" fill="#f1f4f8" d="M 207.5,106.5 C 211.226,106.177 214.893,106.511 218.5,107.5C 216.667,107.833 214.833,108.167 213,108.5C 210.705,108.453 208.871,107.787 207.5,106.5 Z"/></g>
<g><path style="opacity:1" fill="#fbfbfc" d="M 263.5,111.5 C 259.167,112.833 254.833,112.833 250.5,111.5C 252.797,109.706 254.963,107.706 257,105.5C 259.037,107.706 261.203,109.706 263.5,111.5 Z"/></g>
<g><path style="opacity:1" fill="#8299bf" d="M 25.5,98.5 C 25.5,102.167 25.5,105.833 25.5,109.5C 21.5,109.5 17.5,109.5 13.5,109.5C 16.9619,108.518 20.6286,108.185 24.5,108.5C 24.1872,104.958 24.5206,101.625 25.5,98.5 Z"/></g>
<g><path style="opacity:1" fill="#b4c2d8" d="M 172.5,103.5 C 172.5,111.833 172.5,120.167 172.5,128.5C 171.833,121.833 171.167,115.167 170.5,108.5C 170.5,108.167 170.5,107.833 170.5,107.5C 171.167,106.167 171.833,104.833 172.5,103.5 Z"/></g>
<g><path style="opacity:1" fill="#0e3b84" d="M 63.5,109.5 C 72.8333,109.5 82.1667,109.5 91.5,109.5C 91.5,113.833 91.5,118.167 91.5,122.5C 87.8333,122.5 84.1667,122.5 80.5,122.5C 80.6657,126.846 80.499,131.179 80,135.5C 77.0964,137.227 73.9297,137.893 70.5,137.5C 70.7135,135.856 70.3802,134.356 69.5,133C 71.1341,132.506 72.8008,132.34 74.5,132.5C 74.5,129.167 74.5,125.833 74.5,122.5C 70.8333,122.5 67.1667,122.5 63.5,122.5C 63.5,118.167 63.5,113.833 63.5,109.5 Z"/></g>
<g><path style="opacity:1" fill="#6280af" d="M 85.5,113.5 C 80.1667,113.5 74.8333,113.5 69.5,113.5C 69.5,115.167 69.5,116.833 69.5,118.5C 68.5386,116.735 68.2053,114.735 68.5,112.5C 74.358,112.178 80.0247,112.511 85.5,113.5 Z"/></g>
<g><path style="opacity:1" fill="#aabbd3" d="M 250.5,111.5 C 254.833,112.833 259.167,112.833 263.5,111.5C 264.043,111.56 264.376,111.893 264.5,112.5C 259.5,113.833 254.5,113.833 249.5,112.5C 249.624,111.893 249.957,111.56 250.5,111.5 Z"/></g>
<g><path style="opacity:1" fill="#fafbfc" d="M 85.5,113.5 C 85.5,115.167 85.5,116.833 85.5,118.5C 80.1667,118.5 74.8333,118.5 69.5,118.5C 69.5,116.833 69.5,115.167 69.5,113.5C 74.8333,113.5 80.1667,113.5 85.5,113.5 Z"/></g>
<g><path style="opacity:1" fill="#8094bc" d="M 206.5,111.5 C 210.5,111.5 214.5,111.5 218.5,111.5C 218.5,112.5 218.5,113.5 218.5,114.5C 214.5,114.5 210.5,114.5 206.5,114.5C 206.5,113.5 206.5,112.5 206.5,111.5 Z"/></g>
<g><path style="opacity:1" fill="#d5dce9" d="M 132.5,98.5 C 132.5,106.5 132.5,114.5 132.5,122.5C 128.5,122.833 124.5,123.167 120.5,123.5C 120.232,125.099 120.566,126.432 121.5,127.5C 121.44,128.043 121.107,128.376 120.5,128.5C 119.548,126.955 119.215,125.288 119.5,123.5C 119.953,122.542 120.619,121.708 121.5,121C 119.954,118.743 118.288,116.576 116.5,114.5C 118.045,113.548 119.712,113.215 121.5,113.5C 121.5,112.167 121.5,110.833 121.5,109.5C 122.167,110.5 122.833,111.5 123.5,112.5C 123.389,113.117 123.056,113.617 122.5,114C 124.069,117.262 126.403,119.262 129.5,120C 130.252,119.329 130.586,118.496 130.5,117.5C 131.156,116.378 131.489,115.045 131.5,113.5C 131.415,111.667 130.748,110.334 129.5,109.5C 130.11,108.609 130.443,107.609 130.5,106.5C 131.167,103.833 131.833,101.167 132.5,98.5 Z"/></g>
<g><path style="opacity:1" fill="#1c4289" d="M 130.5,117.5 C 130.586,118.496 130.252,119.329 129.5,120C 126.403,119.262 124.069,117.262 122.5,114C 123.056,113.617 123.389,113.117 123.5,112.5C 127.021,111.963 129.355,113.629 130.5,117.5 Z"/></g>
<g><path style="opacity:1" fill="#849bc0" d="M 201.5,106.5 C 202.485,110.634 202.818,114.968 202.5,119.5C 199.5,119.5 196.5,119.5 193.5,119.5C 195.948,118.527 198.615,118.194 201.5,118.5C 201.5,114.5 201.5,110.5 201.5,106.5 Z"/></g>
<g><path style="opacity:1" fill="#a5b5d0" d="M 206.5,117.5 C 210.555,117.176 214.555,117.509 218.5,118.5C 216.5,118.833 214.5,119.167 212.5,119.5C 210.048,119.461 208.048,118.794 206.5,117.5 Z"/></g>
<g><path style="opacity:1" fill="#92a6c7" d="M 224.5,106.5 C 224.5,110.5 224.5,114.5 224.5,118.5C 227.385,118.194 230.052,118.527 232.5,119.5C 229.5,119.5 226.5,119.5 223.5,119.5C 223.182,114.968 223.515,110.634 224.5,106.5 Z"/></g>
<g><path style="opacity:1" fill="#dde3ee" d="M 206.5,122.5 C 210.514,122.334 214.514,122.501 218.5,123C 219.257,124.512 220.257,125.846 221.5,127C 219.19,127.497 216.857,127.663 214.5,127.5C 214.5,126.5 214.5,125.5 214.5,124.5C 213.167,124.5 211.833,124.5 210.5,124.5C 210.5,125.5 210.5,126.5 210.5,127.5C 208.076,127.808 205.743,127.474 203.5,126.5C 204.524,125.148 205.524,123.815 206.5,122.5 Z"/></g>
<g><path style="opacity:1" fill="#a1b4cf" d="M 110.5,137.5 C 109.833,133.167 109.167,128.833 108.5,124.5C 108.783,123.711 109.283,123.044 110,122.5C 110.499,127.489 110.666,132.489 110.5,137.5 Z"/></g>
<g><path style="opacity:1" fill="#1d4389" d="M 67.5,123.5 C 69.3936,124.048 71.0603,125.048 72.5,126.5C 69.6826,128.817 67.0159,131.317 64.5,134C 61.5451,136.291 59.2118,135.791 57.5,132.5C 61.476,130.19 64.8093,127.19 67.5,123.5 Z"/></g>
<g><path style="opacity:1" fill="#194188" d="M 85.5,123.5 C 88.8926,126.381 92.5593,129.047 96.5,131.5C 97.3589,133.539 96.5256,134.872 94,135.5C 89.7505,133.42 86.2505,130.42 83.5,126.5C 84.1925,125.482 84.8592,124.482 85.5,123.5 Z"/></g>
<g><path style="opacity:1" fill="#f4f6f9" d="M 248.5,125.5 C 250.5,125.5 252.5,125.5 254.5,125.5C 254.813,128.247 254.48,130.914 253.5,133.5C 251.325,131.15 249.658,128.483 248.5,125.5 Z"/></g>
<g><path style="opacity:1" fill="#f2f5f9" d="M 259.5,125.5 C 261.527,125.338 263.527,125.505 265.5,126C 264.192,128.795 262.526,131.295 260.5,133.5C 259.52,130.914 259.187,128.247 259.5,125.5 Z"/></g>
<g><path style="opacity:1" fill="#dae0ec" d="M 229.5,137.5 C 218.346,138.495 207.012,138.828 195.5,138.5C 195.5,136.833 195.5,135.167 195.5,133.5C 197.456,131.886 199.456,130.219 201.5,128.5C 202.386,129.325 202.719,130.325 202.5,131.5C 205.247,131.187 207.914,131.52 210.5,132.5C 205.88,133.493 201.214,133.827 196.5,133.5C 196.5,134.833 196.5,136.167 196.5,137.5C 207.5,137.5 218.5,137.5 229.5,137.5 Z"/></g>
<g><path style="opacity:1" fill="#a4b6d1" d="M 249.5,144.5 C 251.948,143.527 254.615,143.194 257.5,143.5C 257.5,145.5 257.5,147.5 257.5,149.5C 256.698,148.048 256.198,146.382 256,144.5C 255.506,146.134 255.34,147.801 255.5,149.5C 254.833,148.167 254.167,146.833 253.5,145.5C 252.432,144.566 251.099,144.232 249.5,144.5 Z"/></g>
<g><path style="opacity:1" fill="#5876a8" d="M 110.5,143.5 C 112.604,143.201 114.604,143.534 116.5,144.5C 115.119,146.635 114.119,148.968 113.5,151.5C 112.68,148.699 111.68,146.032 110.5,143.5 Z"/></g>
<g><path style="opacity:1" fill="#3c5d99" d="M 117.5,143.5 C 119.288,143.215 120.955,143.548 122.5,144.5C 121.624,145.251 120.624,145.751 119.5,146C 122.028,147.017 122.028,148.184 119.5,149.5C 120.376,150.251 121.376,150.751 122.5,151C 120.866,151.494 119.199,151.66 117.5,151.5C 117.5,148.833 117.5,146.167 117.5,143.5 Z"/></g>
<g><path style="opacity:1" fill="#7a8db9" d="M 226.5,145.5 C 224.833,144.167 223.167,144.167 221.5,145.5C 220.957,145.44 220.624,145.107 220.5,144.5C 223.428,143.516 226.428,143.183 229.5,143.5C 229.813,146.247 229.48,148.914 228.5,151.5C 227.831,149.369 227.165,147.369 226.5,145.5 Z"/></g>
<g><path style="opacity:1" fill="#395998" d="M 232.5,143.5 C 233.93,143.421 235.264,143.754 236.5,144.5C 238.708,151.133 236.875,152.8 231,149.5C 230.252,147.16 230.752,145.16 232.5,143.5 Z"/></g>
<g><path style="opacity:1" fill="#6d89b4" d="M 25.5,143.5 C 26.7479,144.334 27.4146,145.667 27.5,147.5C 27.1667,148.833 26.8333,150.167 26.5,151.5C 25.52,148.914 25.1866,146.247 25.5,143.5 Z"/></g>
<g><path style="opacity:1" fill="#788eb9" d="M 31.5,143.5 C 32.7251,144.152 33.3917,145.319 33.5,147C 33.8246,151.157 32.158,152.324 28.5,150.5C 29.325,149.614 30.325,149.281 31.5,149.5C 31.5,147.5 31.5,145.5 31.5,143.5 Z"/></g>
<g><path style="opacity:1" fill="#395c97" d="M 34.5,143.5 C 35.7479,144.334 36.4146,145.667 36.5,147.5C 36.1667,148.833 35.8333,150.167 35.5,151.5C 34.52,148.914 34.1866,146.247 34.5,143.5 Z"/></g>
<g><path style="opacity:1" fill="#315494" d="M 47.5,143.5 C 52.658,144.484 52.658,145.317 47.5,146C 46.3531,148.085 47.0197,149.585 49.5,150.5C 50.6039,149.369 50.2705,148.535 48.5,148C 49.448,147.517 50.448,147.351 51.5,147.5C 51.5,148.833 51.5,150.167 51.5,151.5C 45.4279,151.215 44.0945,148.549 47.5,143.5 Z"/></g>
<g><path style="opacity:1" fill="#6582b0" d="M 68.5,143.5 C 69.7479,144.334 70.4146,145.667 70.5,147.5C 70.1667,148.833 69.8333,150.167 69.5,151.5C 68.52,148.914 68.1866,146.247 68.5,143.5 Z"/></g>
<g><path style="opacity:1" fill="#829bbf" d="M 198.5,144.5 C 198.56,143.957 198.893,143.624 199.5,143.5C 200.8,146.309 200.8,148.976 199.5,151.5C 199.802,148.941 199.468,146.607 198.5,144.5 Z"/></g>
<g><path style="opacity:1" fill="#224c8d" d="M 221.5,145.5 C 223.167,144.167 224.833,144.167 226.5,145.5C 224.836,146.949 224.002,148.949 224,151.5C 223.998,148.949 223.164,146.949 221.5,145.5 Z"/></g>
<g><path style="opacity:1" fill="#eef1f6" d="M 232.5,145.5 C 233.5,145.5 234.5,145.5 235.5,145.5C 235.785,147.288 235.452,148.955 234.5,150.5C 232.783,149.332 232.116,147.665 232.5,145.5 Z"/></g>
<g><path style="opacity:1" fill="#748fb8" d="M 241.5,144.5 C 239.656,146.279 238.99,148.612 239.5,151.5C 238.527,149.052 238.194,146.385 238.5,143.5C 239.791,143.263 240.791,143.596 241.5,144.5 Z"/></g>
<g><path style="opacity:1" fill="#174389" d="M 243.5,144.5 C 244.468,146.607 244.802,148.941 244.5,151.5C 243.094,151.027 242.427,150.027 242.5,148.5C 243.434,147.432 243.768,146.099 243.5,144.5 Z"/></g>
<g><path style="opacity:1" fill="#7994bb" d="M 243.5,144.5 C 243.56,143.957 243.893,143.624 244.5,143.5C 245.8,146.309 245.8,148.976 244.5,151.5C 244.802,148.941 244.468,146.607 243.5,144.5 Z"/></g>
<g><path style="opacity:1" fill="#335393" d="M 249.5,144.5 C 251.099,144.232 252.432,144.566 253.5,145.5C 249.689,145.596 249.689,146.262 253.5,147.5C 252.675,148.386 251.675,148.719 250.5,148.5C 250.649,149.552 250.483,150.552 250,151.5C 249.503,149.19 249.337,146.857 249.5,144.5 Z"/></g>
<g><path style="opacity:1" fill="#93a7c8" d="M 259.5,144.5 C 259.56,143.957 259.893,143.624 260.5,143.5C 261.797,145.973 261.797,148.307 260.5,150.5C 260.795,148.265 260.461,146.265 259.5,144.5 Z"/></g>
<g><path style="opacity:1" fill="#375997" d="M 262.5,143.5 C 264.888,144.219 266.388,145.885 267,148.5C 267.333,147.167 267.667,145.833 268,144.5C 268.814,146.902 268.647,149.235 267.5,151.5C 266.416,150.335 265.583,149.002 265,147.5C 264.781,148.938 264.281,150.271 263.5,151.5C 262.52,148.914 262.187,146.247 262.5,143.5 Z"/></g>
<g><path style="opacity:1" fill="#4e6ca2" d="M 130.5,143.5 C 131.859,144.007 132.859,145.007 133.5,146.5C 134.167,145.5 134.833,144.5 135.5,143.5C 136.833,146.167 136.833,148.833 135.5,151.5C 134.167,147.5 132.833,147.5 131.5,151.5C 130.52,148.914 130.187,146.247 130.5,143.5 Z"/></g>
<g><path style="opacity:1" fill="#7893ba" d="M 139.5,144.5 C 138.532,146.607 138.198,148.941 138.5,151.5C 137.2,148.976 137.2,146.309 138.5,143.5C 139.107,143.624 139.44,143.957 139.5,144.5 Z"/></g>
<g><path style="opacity:1" fill="#264b8f" d="M 161.5,143.5 C 162.583,143.539 163.583,143.873 164.5,144.5C 165.769,146.695 165.769,148.861 164.5,151C 161.186,152.165 159.186,150.998 158.5,147.5C 159.172,145.84 160.172,144.507 161.5,143.5 Z"/></g>
<g><path style="opacity:1" fill="#dae0ec" d="M 160.5,145.5 C 161.833,145.5 163.167,145.5 164.5,145.5C 164.884,147.665 164.217,149.332 162.5,150.5C 160.783,149.332 160.116,147.665 160.5,145.5 Z"/></g>
<g><path style="opacity:1" fill="#315695" d="M 178.5,143.5 C 179.043,143.56 179.376,143.893 179.5,144.5C 178.208,146.667 177.375,149 177,151.5C 175.972,149.156 175.306,146.823 175,144.5C 176.744,147.118 177.911,146.785 178.5,143.5 Z"/></g>
<g><path style="opacity:1" fill="#385997" d="M 190.5,143.5 C 191.748,144.334 192.415,145.667 192.5,147.5C 192.167,148.833 191.833,150.167 191.5,151.5C 190.108,150.395 188.941,149.061 188,147.5C 187.667,148.833 187.333,150.167 187,151.5C 186.186,149.098 186.353,146.765 187.5,144.5C 188.799,145.09 189.632,146.09 190,147.5C 190.49,146.207 190.657,144.873 190.5,143.5 Z"/></g>
<g><path style="opacity:1" fill="#42629c" d="M 19.5,143.5 C 21.288,143.215 22.9547,143.548 24.5,144.5C 23.624,145.251 22.624,145.751 21.5,146C 24.028,147.017 24.028,148.184 21.5,149.5C 22.376,150.251 23.376,150.751 24.5,151C 22.8659,151.494 21.1992,151.66 19.5,151.5C 19.5,148.833 19.5,146.167 19.5,143.5 Z"/></g>
<g><path style="opacity:1" fill="#4f6ca3" d="M 82.5,143.5 C 83.7479,144.334 84.4146,145.667 84.5,147.5C 84.1667,148.833 83.8333,150.167 83.5,151.5C 82.1076,150.395 80.941,149.061 80,147.5C 79.6667,148.833 79.3333,150.167 79,151.5C 78.1859,149.098 78.3526,146.765 79.5,144.5C 81.8651,148.755 82.8651,148.421 82.5,143.5 Z"/></g>
<g><path style="opacity:1" fill="#44659f" d="M 92.5,143.5 C 98.2611,143.709 98.5945,144.542 93.5,146C 97.3779,146.949 97.3779,148.115 93.5,149.5C 98.6572,150.987 98.3239,151.653 92.5,151.5C 92.5,148.833 92.5,146.167 92.5,143.5 Z"/></g>
<g><path style="opacity:1" fill="#20488e" d="M 169.5,143.5 C 170.675,143.281 171.675,143.614 172.5,144.5C 171.311,145.429 169.978,145.762 168.5,145.5C 168.116,147.665 168.783,149.332 170.5,150.5C 171.711,149.726 171.711,148.893 170.5,148C 171.448,147.517 172.448,147.351 173.5,147.5C 173.592,151.071 171.926,152.238 168.5,151C 167.046,148.216 167.379,145.716 169.5,143.5 Z"/></g>
<g><path style="opacity:1" fill="#113e89" d="M 241.5,144.5 C 241.833,145.833 242.167,147.167 242.5,148.5C 241.883,148.389 241.383,148.056 241,147.5C 240.79,149.058 240.29,150.391 239.5,151.5C 238.99,148.612 239.656,146.279 241.5,144.5 Z"/></g>
<g><path style="opacity:1" fill="#4867a0" d="M 12.5,143.5 C 14.1667,143.5 15.8333,143.5 17.5,143.5C 17.6265,145.915 17.7932,148.249 18,150.5C 16.3005,151.406 14.4672,151.739 12.5,151.5C 12.5,148.833 12.5,146.167 12.5,143.5 Z"/></g>
<g><path style="opacity:1" fill="#dae1ec" d="M 13.5,148.5 C 14.675,148.281 15.675,148.614 16.5,149.5C 14.9483,150.798 13.9483,150.465 13.5,148.5 Z"/></g>
<g><path style="opacity:1" fill="#335896" d="M 42.5,144.5 C 43.4682,146.607 43.8016,148.941 43.5,151.5C 41.8267,150.657 40.66,149.324 40,147.5C 39.6667,148.833 39.3333,150.167 39,151.5C 38.1859,149.098 38.3526,146.765 39.5,144.5C 40.5836,145.665 41.4169,146.998 42,148.5C 42.49,147.207 42.6567,145.873 42.5,144.5 Z"/></g>
<g><path style="opacity:1" fill="#43639d" d="M 63.5,143.5 C 68.8333,144.167 68.8333,144.833 63.5,145.5C 62.9648,148.238 63.9648,150.072 66.5,151C 64.5665,151.783 63.0665,151.283 62,149.5C 61.2516,147.16 61.7516,145.16 63.5,143.5 Z"/></g>
<g><path style="opacity:1" fill="#3f5b99" d="M 71.5,143.5 C 73.288,143.215 74.9547,143.548 76.5,144.5C 75.624,145.251 74.624,145.751 73.5,146C 77.3779,146.949 77.3779,148.115 73.5,149.5C 74.376,150.251 75.376,150.751 76.5,151C 74.8659,151.494 73.1992,151.66 71.5,151.5C 71.5,148.833 71.5,146.167 71.5,143.5 Z"/></g>
<g><path style="opacity:1" fill="#44629d" d="M 87.5,143.5 C 91.5,144.167 91.5,144.833 87.5,145.5C 86.9648,148.238 87.9648,150.072 90.5,151C 88.5665,151.783 87.0665,151.283 86,149.5C 85.2516,147.16 85.7516,145.16 87.5,143.5 Z"/></g>
<g><path style="opacity:1" fill="#4a66a0" d="M 102.5,143.5 C 103.496,143.414 104.329,143.748 105,144.5C 104.737,145.951 104.904,147.284 105.5,148.5C 106.086,148.291 106.586,147.957 107,147.5C 107.49,148.793 107.657,150.127 107.5,151.5C 105.167,151.5 102.833,151.5 100.5,151.5C 100.858,148.733 101.525,146.067 102.5,143.5 Z"/></g>
<g><path style="opacity:1" fill="#224c8d" d="M 153.5,144.5 C 155.308,145.918 155.975,147.918 155.5,150.5C 156.552,150.351 157.552,150.517 158.5,151C 156.866,151.494 155.199,151.66 153.5,151.5C 153.5,149.167 153.5,146.833 153.5,144.5 Z"/></g>
<g><path style="opacity:1" fill="#264a8f" d="M 198.5,144.5 C 199.468,146.607 199.802,148.941 199.5,151.5C 197.665,150.878 196.498,149.544 196,147.5C 195.667,148.833 195.333,150.167 195,151.5C 194.333,149.167 194.333,146.833 195,144.5C 197.123,147.97 198.29,147.97 198.5,144.5 Z"/></g>
<g><path style="opacity:1" fill="#3d5e9b" d="M 216.5,143.5 C 217.5,143.5 218.5,143.5 219.5,143.5C 219.387,146.049 220.054,148.382 221.5,150.5C 221.167,150.833 220.833,151.167 220.5,151.5C 219.784,150.689 218.95,150.022 218,149.5C 216.943,150.627 215.777,151.127 214.5,151C 215.554,148.618 216.221,146.118 216.5,143.5 Z"/></g>
<g><path style="opacity:1" fill="#46649e" d="M 125.5,143.5 C 129.5,144.167 129.5,144.833 125.5,145.5C 124.965,148.238 125.965,150.072 128.5,151C 123.917,151.934 122.417,150.1 124,145.5C 124.717,144.956 125.217,144.289 125.5,143.5 Z"/></g>
<g><path style="opacity:1" fill="#22488e" d="M 139.5,144.5 C 140.315,145.429 141.148,146.429 142,147.5C 142.897,143.586 143.397,143.752 143.5,148C 143.108,152.112 141.941,151.945 140,147.5C 139.79,149.058 139.29,150.391 138.5,151.5C 138.198,148.941 138.532,146.607 139.5,144.5 Z"/></g>
<g><path style="opacity:1" fill="#8aa1c3" d="M 42.5,144.5 C 42.56,143.957 42.8933,143.624 43.5,143.5C 44.8003,146.309 44.8003,148.976 43.5,151.5C 43.8016,148.941 43.4682,146.607 42.5,144.5 Z"/></g>
<g><path style="opacity:1" fill="#385897" d="M 56.5,143.5 C 61.797,144.032 61.797,144.866 56.5,146C 59.7055,146.625 60.7055,148.291 59.5,151C 58.0563,151.781 56.723,151.614 55.5,150.5C 56.6034,150.002 57.6034,149.669 58.5,149.5C 55.6095,148.163 54.9428,146.163 56.5,143.5 Z"/></g>
<g><path style="opacity:1" fill="#3a5b99" d="M 147.5,143.5 C 152.418,144.221 153.752,146.888 151.5,151.5C 145.216,151.496 143.882,148.829 147.5,143.5 Z"/></g>
<g><path style="opacity:1" fill="#f7f9fb" d="M 147.5,145.5 C 148.5,145.5 149.5,145.5 150.5,145.5C 149.5,152.167 148.5,152.167 147.5,145.5 Z"/></g>
<g><path style="opacity:1" fill="#345495" d="M 203.5,143.5 C 205.39,143.297 206.89,143.963 208,145.5C 208.414,145.043 208.914,144.709 209.5,144.5C 210.584,145.665 211.417,146.998 212,148.5C 212.29,146.956 212.956,145.623 214,144.5C 214.236,147.226 213.403,149.559 211.5,151.5C 210.194,150.088 209.36,148.421 209,146.5C 208.42,150.426 206.253,151.926 202.5,151C 201.046,148.216 201.379,145.716 203.5,143.5 Z"/></g>
<g><path style="opacity:1" fill="#eef1f6" d="M 203.5,145.5 C 204.5,145.5 205.5,145.5 206.5,145.5C 206.884,147.665 206.217,149.332 204.5,150.5C 203.548,148.955 203.215,147.288 203.5,145.5 Z"/></g>
<g><path style="opacity:1" fill="#355697" d="M 257.5,149.5 C 257.81,150.738 258.31,150.738 259,149.5C 259.494,147.866 259.66,146.199 259.5,144.5C 260.461,146.265 260.795,148.265 260.5,150.5C 259.903,151.139 259.07,151.472 258,151.5C 256.624,151.316 255.791,150.649 255.5,149.5C 255.34,147.801 255.506,146.134 256,144.5C 256.198,146.382 256.698,148.048 257.5,149.5 Z"/></g>
<g><path style="opacity:1" fill="#385b9a" d="M 270.5,144.5 C 276.555,143.942 277.888,146.109 274.5,151C 273.207,151.49 271.873,151.657 270.5,151.5C 270.5,149.167 270.5,146.833 270.5,144.5 Z"/></g>
<g><path style="opacity:1" fill="#d5dce9" d="M 271.5,145.5 C 272.5,145.5 273.5,145.5 274.5,145.5C 274.884,147.665 274.217,149.332 272.5,150.5C 271.548,148.955 271.215,147.288 271.5,145.5 Z"/></g>
</svg>
